<svg width="42" height="42" viewBox="0 0 42 42" fill="none" xmlns="http://www.w3.org/2000/svg">
<path d="M18.6667 32.6667H23.3333V23.3333H32.6667V18.6667H23.3333V9.33333H18.6667V18.6667H9.33333V23.3333H18.6667V32.6667ZM4.66667 42C3.38333 42 2.28472 41.5431 1.37083 40.6292C0.456944 39.7153 0 38.6167 0 37.3333V4.66667C0 3.38333 0.456944 2.28472 1.37083 1.37083C2.28472 0.456944 3.38333 0 4.66667 0H37.3333C38.6167 0 39.7153 0.456944 40.6292 1.37083C41.5431 2.28472 42 3.38333 42 4.66667V37.3333C42 38.6167 41.5431 39.7153 40.6292 40.6292C39.7153 41.5431 38.6167 42 37.3333 42H4.66667ZM4.66667 37.3333H37.3333V4.66667H4.66667V37.3333Z" fill="#E8EAED"/>
</svg>
