<svg width="120" height="24" viewBox="0 0 120 24" fill="none" xmlns="http://www.w3.org/2000/svg">
<path d="M22.4041 1.18182L18.782 23H14.7976L7.60653 9.26776H7.43608L5.1456 23H0.53267L4.15483 1.18182H8.20312L15.3622 14.9034H15.5433L17.8125 1.18182H22.4041ZM44.4114 12.3892C44.0137 14.7187 43.2431 16.6967 42.0996 18.3232C40.9632 19.9496 39.5748 21.1854 37.9341 22.0305C36.3006 22.8757 34.5392 23.2983 32.65 23.2983C30.6685 23.2983 28.9604 22.8473 27.5257 21.9453C26.0982 21.0433 25.0648 19.7401 24.4256 18.0355C23.7864 16.3239 23.6657 14.2607 24.0634 11.8459C24.4469 9.50923 25.2104 7.5277 26.3539 5.90128C27.4973 4.26776 28.8929 3.02486 30.5407 2.17258C32.1884 1.31321 33.9604 0.883522 35.8567 0.883522C37.824 0.883522 39.5215 1.33807 40.949 2.24716C42.3837 3.15625 43.4171 4.47017 44.0492 6.18892C44.6884 7.90057 44.8091 9.96733 44.4114 12.3892ZM39.8198 11.8459C40.0684 10.3473 40.0577 9.0902 39.7878 8.07457C39.525 7.05185 39.0421 6.2777 38.339 5.75213C37.6358 5.22656 36.748 4.96378 35.6756 4.96378C34.5108 4.96378 33.4419 5.25497 32.4689 5.83736C31.503 6.41974 30.6863 7.26491 30.0186 8.37287C29.3581 9.47372 28.9 10.8125 28.6444 12.3892C28.3887 13.8949 28.3958 15.152 28.6657 16.1605C28.9426 17.169 29.4363 17.9325 30.1465 18.451C30.8638 18.9624 31.7551 19.218 32.8205 19.218C33.9782 19.218 35.0364 18.9339 35.9952 18.3658C36.9611 17.7905 37.7743 16.956 38.4348 15.8622C39.0953 14.7614 39.557 13.4226 39.8198 11.8459ZM47.2159 4.98508L47.8551 1.18182H65.7741L65.1349 4.98508H58.4553L55.4723 23H50.9126L53.8956 4.98508H47.2159ZM66.1976 23H61.2544L72.4086 1.18182H78.3532L82.2523 23H77.3091L74.6564 6.16761H74.486L66.1976 23ZM67.3269 14.424H79.003L78.3851 18.0249H66.709L67.3269 14.424Z" fill="white"/>
<path d="M99.9556 11.3026L95.8327 11.5582C95.8114 11.196 95.712 10.8729 95.5344 10.5888C95.364 10.2976 95.1119 10.0668 94.7781 9.89631C94.4513 9.72585 94.0394 9.64062 93.5423 9.64062C92.7965 9.64062 92.1325 9.81108 91.5501 10.152C90.9677 10.4929 90.6374 10.9297 90.5593 11.4624C90.4954 11.8033 90.5842 12.0909 90.8256 12.3253C91.0671 12.5597 91.5536 12.7585 92.2852 12.9219L95.1616 13.5185C96.6957 13.8452 97.8036 14.3885 98.4854 15.1484C99.1744 15.9084 99.4194 16.9027 99.2205 18.1314C99.043 19.1754 98.5849 20.0881 97.8462 20.8693C97.1076 21.6435 96.1701 22.2472 95.0337 22.6804C93.8974 23.1065 92.6367 23.3196 91.2518 23.3196C89.0288 23.3196 87.3384 22.8651 86.1808 21.956C85.0231 21.0469 84.4656 19.8146 84.5082 18.2592L88.94 18.0249C88.9755 18.6925 89.2099 19.1967 89.6431 19.5376C90.0763 19.8714 90.6694 20.0419 91.4222 20.049C92.2674 20.0632 92.9847 19.8892 93.5742 19.527C94.1708 19.1577 94.5082 18.7102 94.5863 18.1847C94.6431 17.8153 94.5366 17.517 94.2667 17.2898C94.0039 17.0625 93.521 16.8743 92.8178 16.7251L90.0906 16.1605C88.5423 15.8409 87.4308 15.2692 86.756 14.4453C86.0813 13.6214 85.8505 12.5739 86.0636 11.3026C86.234 10.2869 86.6566 9.4169 87.3313 8.69247C88.0131 7.96094 88.8903 7.39986 89.9627 7.00923C91.0423 6.61861 92.2603 6.4233 93.6168 6.4233C95.7404 6.4233 97.3384 6.86009 98.4109 7.73366C99.4904 8.60724 100.005 9.79687 99.9556 11.3026ZM106.148 18.2912L107.053 12.8473H107.714L114.01 6.63636H119.22L110.825 14.8608H109.738L106.148 18.2912ZM101.258 23L104.88 1.18182H109.419L105.796 23H101.258ZM111.485 23L107.863 15.8729L111.411 12.6662L116.801 23H111.485Z" fill="#FF0000"/>
</svg>
